frame:0    pts:0       pts_time:0
lavfi.scd.mafd=0.000
lavfi.scd.score=0.000
frame:1    pts:512     pts_time:0.0416667
lavfi.scd.mafd=0.001
lavfi.scd.score=0.001
frame:2    pts:1024    pts_time:0.0833333
lavfi.scd.mafd=2.878
lavfi.scd.score=2.877
frame:3    pts:1536    pts_time:0.125
lavfi.scd.mafd=0.000
lavfi.scd.score=0.000
frame:4    pts:2048    pts_time:0.166667
lavfi.scd.mafd=0.000
lavfi.scd.score=0.000
frame:5    pts:2560    pts_time:0.208333
lavfi.scd.mafd=2.880
lavfi.scd.score=2.880
frame:6    pts:3072    pts_time:0.25
lavfi.scd.mafd=0.000
lavfi.scd.score=0.000
frame:7    pts:3584    pts_time:0.291667
lavfi.scd.mafd=0.001
lavfi.scd.score=0.001
frame:8    pts:4096    pts_time:0.333333
lavfi.scd.mafd=2.880
lavfi.scd.score=2.879
frame:9    pts:4608    pts_time:0.375
lavfi.scd.mafd=0.008
lavfi.scd.score=0.008
frame:10   pts:5120    pts_time:0.416667
lavfi.scd.mafd=2.881
lavfi.scd.score=2.873
frame:11   pts:5632    pts_time:0.458333
lavfi.scd.mafd=0.003
lavfi.scd.score=0.003
frame:12   pts:6144    pts_time:0.5
lavfi.scd.mafd=0.002
lavfi.scd.score=0.001
frame:13   pts:6656    pts_time:0.541667
lavfi.scd.mafd=0.003
lavfi.scd.score=0.000
frame:14   pts:7168    pts_time:0.583333
lavfi.scd.mafd=2.884
lavfi.scd.score=2.881
frame:15   pts:7680    pts_time:0.625
lavfi.scd.mafd=0.000
lavfi.scd.score=0.000
frame:16   pts:8192    pts_time:0.666667
lavfi.scd.mafd=0.000
lavfi.scd.score=0.000
frame:17   pts:8704    pts_time:0.708333
lavfi.scd.mafd=3.166
lavfi.scd.score=3.166
frame:18   pts:9216    pts_time:0.75
lavfi.scd.mafd=0.000
lavfi.scd.score=0.000
frame:19   pts:9728    pts_time:0.791667
lavfi.scd.mafd=0.005
lavfi.scd.score=0.005
frame:20   pts:10240   pts_time:0.833333
lavfi.scd.mafd=2.880
lavfi.scd.score=2.875
frame:21   pts:10752   pts_time:0.875
lavfi.scd.mafd=0.000
lavfi.scd.score=0.000
frame:22   pts:11264   pts_time:0.916667
lavfi.scd.mafd=0.000
lavfi.scd.score=0.000
frame:23   pts:11776   pts_time:0.958333
lavfi.scd.mafd=0.002
lavfi.scd.score=0.002
frame:24   pts:12288   pts_time:1
lavfi.scd.mafd=2.879
lavfi.scd.score=2.877
frame:25   pts:12800   pts_time:1.041667
lavfi.scd.mafd=0.000
lavfi.scd.score=0.000
frame:26   pts:13312   pts_time:1.083333
lavfi.scd.mafd=2.548
lavfi.scd.score=2.548
frame:27   pts:13824   pts_time:1.125
lavfi.scd.mafd=0.004
lavfi.scd.score=0.004
frame:28   pts:14336   pts_time:1.166667
lavfi.scd.mafd=0.002
lavfi.scd.score=0.002
frame:29   pts:14848   pts_time:1.208333
lavfi.scd.mafd=2.876
lavfi.scd.score=2.874
frame:30   pts:15360   pts_time:1.25
lavfi.scd.mafd=0.000
lavfi.scd.score=0.000
frame:31   pts:15872   pts_time:1.291667
lavfi.scd.mafd=0.000
lavfi.scd.score=0.000
frame:32   pts:16384   pts_time:1.333333
lavfi.scd.mafd=0.000
lavfi.scd.score=0.000
frame:33   pts:16896   pts_time:1.375
lavfi.scd.mafd=0.004
lavfi.scd.score=0.004
frame:34   pts:17408   pts_time:1.416667
lavfi.scd.mafd=2.542
lavfi.scd.score=2.538
frame:35   pts:17920   pts_time:1.458333
lavfi.scd.mafd=0.002
lavfi.scd.score=0.002
frame:36   pts:18432   pts_time:1.5
lavfi.scd.mafd=0.001
lavfi.scd.score=0.000
frame:37   pts:18944   pts_time:1.541667
lavfi.scd.mafd=2.872
lavfi.scd.score=2.871
frame:38   pts:19456   pts_time:1.583333
lavfi.scd.mafd=0.000
lavfi.scd.score=0.000
frame:39   pts:19968   pts_time:1.625
lavfi.scd.mafd=0.004
lavfi.scd.score=0.004
frame:40   pts:20480   pts_time:1.666667
lavfi.scd.mafd=0.002
lavfi.scd.score=0.002
frame:41   pts:20992   pts_time:1.708333
lavfi.scd.mafd=2.536
lavfi.scd.score=2.534
frame:42   pts:21504   pts_time:1.75
lavfi.scd.mafd=0.000
lavfi.scd.score=0.000
frame:43   pts:22016   pts_time:1.791667
lavfi.scd.mafd=0.001
lavfi.scd.score=0.001
frame:44   pts:22528   pts_time:1.833333
lavfi.scd.mafd=0.000
lavfi.scd.score=0.000
frame:45   pts:23040   pts_time:1.875
lavfi.scd.mafd=0.001
lavfi.scd.score=0.001
frame:46   pts:23552   pts_time:1.916667
lavfi.scd.mafd=0.002
lavfi.scd.score=0.001
frame:47   pts:24064   pts_time:1.958333
lavfi.scd.mafd=2.533
lavfi.scd.score=2.530
frame:48   pts:24576   pts_time:2
lavfi.scd.mafd=2.867
lavfi.scd.score=0.334
frame:49   pts:25088   pts_time:2.041667
lavfi.scd.mafd=0.000
lavfi.scd.score=0.000
frame:50   pts:25600   pts_time:2.083333
lavfi.scd.mafd=0.000
lavfi.scd.score=0.000
frame:51   pts:26112   pts_time:2.125
lavfi.scd.mafd=0.002
lavfi.scd.score=0.002
frame:52   pts:26624   pts_time:2.166667
lavfi.scd.mafd=0.004
lavfi.scd.score=0.001
frame:53   pts:27136   pts_time:2.208333
lavfi.scd.mafd=0.003
lavfi.scd.score=0.001
frame:54   pts:27648   pts_time:2.25
lavfi.scd.mafd=2.530
lavfi.scd.score=2.527
frame:55   pts:28160   pts_time:2.291667
lavfi.scd.mafd=0.002
lavfi.scd.score=0.002
frame:56   pts:28672   pts_time:2.333333
lavfi.scd.mafd=2.866
lavfi.scd.score=2.864
frame:57   pts:29184   pts_time:2.375
lavfi.scd.mafd=0.000
lavfi.scd.score=0.000
frame:58   pts:29696   pts_time:2.416667
lavfi.scd.mafd=0.000
lavfi.scd.score=0.000
frame:59   pts:30208   pts_time:2.458333
lavfi.scd.mafd=0.000
lavfi.scd.score=0.000
frame:60   pts:30720   pts_time:2.5
lavfi.scd.mafd=0.000
lavfi.scd.score=0.000
frame:61   pts:31232   pts_time:2.541667
lavfi.scd.mafd=2.866
lavfi.scd.score=2.866
frame:62   pts:31744   pts_time:2.583333
lavfi.scd.mafd=2.529
lavfi.scd.score=0.337
frame:63   pts:32256   pts_time:2.625
lavfi.scd.mafd=0.000
lavfi.scd.score=0.000
frame:64   pts:32768   pts_time:2.666667
lavfi.scd.mafd=0.000
lavfi.scd.score=0.000
frame:65   pts:33280   pts_time:2.708333
lavfi.scd.mafd=2.864
lavfi.scd.score=2.864
frame:66   pts:33792   pts_time:2.75
lavfi.scd.mafd=0.000
lavfi.scd.score=0.000
frame:67   pts:34304   pts_time:2.791667
lavfi.scd.mafd=0.000
lavfi.scd.score=0.000
frame:68   pts:34816   pts_time:2.833333
lavfi.scd.mafd=2.866
lavfi.scd.score=2.866
frame:69   pts:35328   pts_time:2.875
lavfi.scd.mafd=0.000
lavfi.scd.score=0.000
frame:70   pts:35840   pts_time:2.916667
lavfi.scd.mafd=0.000
lavfi.scd.score=0.000
frame:71   pts:36352   pts_time:2.958333
lavfi.scd.mafd=2.866
lavfi.scd.score=2.866
frame:72   pts:36864   pts_time:3
lavfi.scd.mafd=0.000
lavfi.scd.score=0.000
frame:73   pts:37376   pts_time:3.041667
lavfi.scd.mafd=0.003
lavfi.scd.score=0.003
frame:74   pts:37888   pts_time:3.083333
lavfi.scd.mafd=2.865
lavfi.scd.score=2.863
frame:75   pts:38400   pts_time:3.125
lavfi.scd.mafd=2.528
lavfi.scd.score=0.338
frame:76   pts:38912   pts_time:3.166667
lavfi.scd.mafd=0.000
lavfi.scd.score=0.000
frame:77   pts:39424   pts_time:3.208333
lavfi.scd.mafd=2.860
lavfi.scd.score=2.860
frame:78   pts:39936   pts_time:3.25
lavfi.scd.mafd=0.000
lavfi.scd.score=0.000
frame:79   pts:40448   pts_time:3.291667
lavfi.scd.mafd=0.005
lavfi.scd.score=0.005
frame:80   pts:40960   pts_time:3.333333
lavfi.scd.mafd=2.859
lavfi.scd.score=2.854
frame:81   pts:41472   pts_time:3.375
lavfi.scd.mafd=0.000
lavfi.scd.score=0.000
frame:82   pts:41984   pts_time:3.416667
lavfi.scd.mafd=2.858
lavfi.scd.score=2.858
frame:83   pts:42496   pts_time:3.458333
lavfi.scd.mafd=0.002
lavfi.scd.score=0.002
frame:84   pts:43008   pts_time:3.5
lavfi.scd.mafd=0.002
lavfi.scd.score=0.000
frame:85   pts:43520   pts_time:3.541667
lavfi.scd.mafd=2.857
lavfi.scd.score=2.855
frame:86   pts:44032   pts_time:3.583333
lavfi.scd.mafd=0.000
lavfi.scd.score=0.000
frame:87   pts:44544   pts_time:3.625
lavfi.scd.mafd=0.010
lavfi.scd.score=0.010
frame:88   pts:45056   pts_time:3.666667
lavfi.scd.mafd=2.853
lavfi.scd.score=2.842
frame:89   pts:45568   pts_time:3.708333
lavfi.scd.mafd=0.006
lavfi.scd.score=0.006
frame:90   pts:46080   pts_time:3.75
lavfi.scd.mafd=2.852
lavfi.scd.score=2.846
frame:91   pts:46592   pts_time:3.791667
lavfi.scd.mafd=0.004
lavfi.scd.score=0.004
frame:92   pts:47104   pts_time:3.833333
lavfi.scd.mafd=0.003
lavfi.scd.score=0.001
frame:93   pts:47616   pts_time:3.875
lavfi.scd.mafd=0.002
lavfi.scd.score=0.001
frame:94   pts:48128   pts_time:3.916667
lavfi.scd.mafd=3.133
lavfi.scd.score=3.131
frame:95   pts:48640   pts_time:3.958333
lavfi.scd.mafd=0.003
lavfi.scd.score=0.003
frame:96   pts:49152   pts_time:4
lavfi.scd.mafd=2.853
lavfi.scd.score=2.851
frame:97   pts:49664   pts_time:4.041667
lavfi.scd.mafd=0.000
lavfi.scd.score=0.000
frame:98   pts:50176   pts_time:4.083333
lavfi.scd.mafd=0.000
lavfi.scd.score=0.000
frame:99   pts:50688   pts_time:4.125
lavfi.scd.mafd=2.850
lavfi.scd.score=2.850
frame:100  pts:51200   pts_time:4.166667
lavfi.scd.mafd=0.000
lavfi.scd.score=0.000
frame:101  pts:51712   pts_time:4.208333
lavfi.scd.mafd=0.000
lavfi.scd.score=0.000
frame:102  pts:52224   pts_time:4.25
lavfi.scd.mafd=2.848
lavfi.scd.score=2.848
frame:103  pts:52736   pts_time:4.291667
lavfi.scd.mafd=0.001
lavfi.scd.score=0.001
frame:104  pts:53248   pts_time:4.333333
lavfi.scd.mafd=0.000
lavfi.scd.score=0.000
frame:105  pts:53760   pts_time:4.375
lavfi.scd.mafd=0.000
lavfi.scd.score=0.000
frame:106  pts:54272   pts_time:4.416667
lavfi.scd.mafd=3.134
lavfi.scd.score=3.134
frame:107  pts:54784   pts_time:4.458333
lavfi.scd.mafd=0.000
lavfi.scd.score=0.000
frame:108  pts:55296   pts_time:4.5
lavfi.scd.mafd=0.000
lavfi.scd.score=0.000
frame:109  pts:55808   pts_time:4.541667
lavfi.scd.mafd=0.000
lavfi.scd.score=0.000
frame:110  pts:56320   pts_time:4.583333
lavfi.scd.mafd=2.848
lavfi.scd.score=2.848
frame:111  pts:56832   pts_time:4.625
lavfi.scd.mafd=0.000
lavfi.scd.score=0.000
frame:112  pts:57344   pts_time:4.666667
lavfi.scd.mafd=0.000
lavfi.scd.score=0.000
frame:113  pts:57856   pts_time:4.708333
lavfi.scd.mafd=0.001
lavfi.scd.score=0.001
frame:114  pts:58368   pts_time:4.75
lavfi.scd.mafd=2.531
lavfi.scd.score=2.530
frame:115  pts:58880   pts_time:4.791667
lavfi.scd.mafd=0.000
lavfi.scd.score=0.000
frame:116  pts:59392   pts_time:4.833333
lavfi.scd.mafd=2.849
lavfi.scd.score=2.849
frame:117  pts:59904   pts_time:4.875
lavfi.scd.mafd=0.000
lavfi.scd.score=0.000
frame:118  pts:60416   pts_time:4.916667
lavfi.scd.mafd=0.000
lavfi.scd.score=0.000
frame:119  pts:60928   pts_time:4.958333
lavfi.scd.mafd=0.000
lavfi.scd.score=0.000
frame:120  pts:61440   pts_time:5
lavfi.scd.mafd=0.000
lavfi.scd.score=0.000
frame:121  pts:61952   pts_time:5.041667
lavfi.scd.mafd=0.000
lavfi.scd.score=0.000
frame:122  pts:62464   pts_time:5.083333
lavfi.scd.mafd=2.535
lavfi.scd.score=2.535
frame:123  pts:62976   pts_time:5.125
lavfi.scd.mafd=0.000
lavfi.scd.score=0.000
frame:124  pts:63488   pts_time:5.166667
lavfi.scd.mafd=0.000
lavfi.scd.score=0.000
frame:125  pts:64000   pts_time:5.208333
lavfi.scd.mafd=0.000
lavfi.scd.score=0.000
frame:126  pts:64512   pts_time:5.25
lavfi.scd.mafd=0.000
lavfi.scd.score=0.000
frame:127  pts:65024   pts_time:5.291667
lavfi.scd.mafd=0.000
lavfi.scd.score=0.000
frame:128  pts:65536   pts_time:5.333333
lavfi.scd.mafd=2.539
lavfi.scd.score=2.539
frame:129  pts:66048   pts_time:5.375
lavfi.scd.mafd=0.000
lavfi.scd.score=0.000
frame:130  pts:66560   pts_time:5.416667
lavfi.scd.mafd=0.000
lavfi.scd.score=0.000
frame:131  pts:67072   pts_time:5.458333
lavfi.scd.mafd=0.000
lavfi.scd.score=0.000
frame:132  pts:67584   pts_time:5.5
lavfi.scd.mafd=0.000
lavfi.scd.score=0.000
frame:133  pts:68096   pts_time:5.541667
lavfi.scd.mafd=0.000
lavfi.scd.score=0.000
frame:134  pts:68608   pts_time:5.583333
lavfi.scd.mafd=0.000
lavfi.scd.score=0.000
frame:135  pts:69120   pts_time:5.625
lavfi.scd.mafd=2.542
lavfi.scd.score=2.542
frame:136  pts:69632   pts_time:5.666667
lavfi.scd.mafd=0.000
lavfi.scd.score=0.000
frame:137  pts:70144   pts_time:5.708333
lavfi.scd.mafd=2.857
lavfi.scd.score=2.857
frame:138  pts:70656   pts_time:5.75
lavfi.scd.mafd=0.000
lavfi.scd.score=0.000
frame:139  pts:71168   pts_time:5.791667
lavfi.scd.mafd=0.000
lavfi.scd.score=0.000
frame:140  pts:71680   pts_time:5.833333
lavfi.scd.mafd=0.000
lavfi.scd.score=0.000
frame:141  pts:72192   pts_time:5.875
lavfi.scd.mafd=0.000
lavfi.scd.score=0.000
frame:142  pts:72704   pts_time:5.916667
lavfi.scd.mafd=3.186
lavfi.scd.score=3.186
frame:143  pts:73216   pts_time:5.958333
lavfi.scd.mafd=0.003
lavfi.scd.score=0.003
frame:144  pts:73728   pts_time:6
lavfi.scd.mafd=0.001
lavfi.scd.score=0.001
frame:145  pts:74240   pts_time:6.041667
lavfi.scd.mafd=0.283
lavfi.scd.score=0.282
frame:146  pts:74752   pts_time:6.083333
lavfi.scd.mafd=2.820
lavfi.scd.score=2.537
frame:147  pts:75264   pts_time:6.125
lavfi.scd.mafd=0.313
lavfi.scd.score=0.313
frame:148  pts:75776   pts_time:6.166667
lavfi.scd.mafd=0.366
lavfi.scd.score=0.053
frame:149  pts:76288   pts_time:6.208333
lavfi.scd.mafd=0.298
lavfi.scd.score=0.069
frame:150  pts:76800   pts_time:6.25
lavfi.scd.mafd=2.715
lavfi.scd.score=2.417
frame:151  pts:77312   pts_time:6.291667
lavfi.scd.mafd=0.230
lavfi.scd.score=0.230
frame:152  pts:77824   pts_time:6.333333
lavfi.scd.mafd=2.005
lavfi.scd.score=1.775
frame:153  pts:78336   pts_time:6.375
lavfi.scd.mafd=0.909
lavfi.scd.score=0.909
frame:154  pts:78848   pts_time:6.416667
lavfi.scd.mafd=2.761
lavfi.scd.score=1.852
frame:155  pts:79360   pts_time:6.458333
lavfi.scd.mafd=0.286
lavfi.scd.score=0.286
frame:156  pts:79872   pts_time:6.5
lavfi.scd.mafd=1.846
lavfi.scd.score=1.560
frame:157  pts:80384   pts_time:6.541667
lavfi.scd.mafd=1.392
lavfi.scd.score=0.454
frame:158  pts:80896   pts_time:6.583333
lavfi.scd.mafd=0.520
lavfi.scd.score=0.520
frame:159  pts:81408   pts_time:6.625
lavfi.scd.mafd=2.948
lavfi.scd.score=2.428
frame:160  pts:81920   pts_time:6.666667
lavfi.scd.mafd=2.375
lavfi.scd.score=0.573
frame:161  pts:82432   pts_time:6.708333
lavfi.scd.mafd=0.287
lavfi.scd.score=0.287
frame:162  pts:82944   pts_time:6.75
lavfi.scd.mafd=3.250
lavfi.scd.score=2.963
frame:163  pts:83456   pts_time:6.791667
lavfi.scd.mafd=0.035
lavfi.scd.score=0.035
frame:164  pts:83968   pts_time:6.833333
lavfi.scd.mafd=0.285
lavfi.scd.score=0.250
frame:165  pts:84480   pts_time:6.875
lavfi.scd.mafd=0.735
lavfi.scd.score=0.450
frame:166  pts:84992   pts_time:6.916667
lavfi.scd.mafd=3.572
lavfi.scd.score=2.837
frame:167  pts:85504   pts_time:6.958333
lavfi.scd.mafd=0.297
lavfi.scd.score=0.297
frame:168  pts:86016   pts_time:7
lavfi.scd.mafd=0.328
lavfi.scd.score=0.031
frame:169  pts:86528   pts_time:7.041667
lavfi.scd.mafd=0.001
lavfi.scd.score=0.001
frame:170  pts:87040   pts_time:7.083333
lavfi.scd.mafd=4.078
lavfi.scd.score=4.077
frame:171  pts:87552   pts_time:7.125
lavfi.scd.mafd=0.000
lavfi.scd.score=0.000
frame:172  pts:88064   pts_time:7.166667
lavfi.scd.mafd=0.000
lavfi.scd.score=0.000
frame:173  pts:88576   pts_time:7.208333
lavfi.scd.mafd=0.037
lavfi.scd.score=0.037
frame:174  pts:89088   pts_time:7.25
lavfi.scd.mafd=0.025
lavfi.scd.score=0.012
frame:175  pts:89600   pts_time:7.291667
lavfi.scd.mafd=0.026
lavfi.scd.score=0.000
frame:176  pts:90112   pts_time:7.333333
lavfi.scd.mafd=3.792
lavfi.scd.score=3.767
frame:177  pts:90624   pts_time:7.375
lavfi.scd.mafd=0.001
lavfi.scd.score=0.001
frame:178  pts:91136   pts_time:7.416667
lavfi.scd.mafd=0.001
lavfi.scd.score=0.000
frame:179  pts:91648   pts_time:7.458333
lavfi.scd.mafd=0.024
lavfi.scd.score=0.023
frame:180  pts:92160   pts_time:7.5
lavfi.scd.mafd=0.010
lavfi.scd.score=0.010
frame:181  pts:92672   pts_time:7.541667
lavfi.scd.mafd=0.002
lavfi.scd.score=0.002
frame:182  pts:93184   pts_time:7.583333
lavfi.scd.mafd=0.003
lavfi.scd.score=0.001
frame:183  pts:93696   pts_time:7.625
lavfi.scd.mafd=0.009
lavfi.scd.score=0.006
frame:184  pts:94208   pts_time:7.666667
lavfi.scd.mafd=0.005
lavfi.scd.score=0.004
frame:185  pts:94720   pts_time:7.708333
lavfi.scd.mafd=0.002
lavfi.scd.score=0.002
frame:186  pts:95232   pts_time:7.75
lavfi.scd.mafd=0.003
lavfi.scd.score=0.001
frame:187  pts:95744   pts_time:7.791667
lavfi.scd.mafd=0.005
lavfi.scd.score=0.002
frame:188  pts:96256   pts_time:7.833333
lavfi.scd.mafd=0.003
lavfi.scd.score=0.001
frame:189  pts:96768   pts_time:7.875
lavfi.scd.mafd=0.001
lavfi.scd.score=0.001
frame:190  pts:97280   pts_time:7.916667
lavfi.scd.mafd=0.001
lavfi.scd.score=0.000
frame:191  pts:97792   pts_time:7.958333
lavfi.scd.mafd=0.005
lavfi.scd.score=0.004
frame:192  pts:98304   pts_time:8
lavfi.scd.mafd=0.004
lavfi.scd.score=0.002
frame:193  pts:98816   pts_time:8.041667
lavfi.scd.mafd=0.001
lavfi.scd.score=0.001
frame:194  pts:99328   pts_time:8.083333
lavfi.scd.mafd=0.001
lavfi.scd.score=0.000
frame:195  pts:99840   pts_time:8.125
lavfi.scd.mafd=0.010
lavfi.scd.score=0.009
frame:196  pts:100352  pts_time:8.166667
lavfi.scd.mafd=0.006
lavfi.scd.score=0.004
frame:197  pts:100864  pts_time:8.208333
lavfi.scd.mafd=3.800
lavfi.scd.score=3.794
frame:198  pts:101376  pts_time:8.25
lavfi.scd.mafd=0.000
lavfi.scd.score=0.000
frame:199  pts:101888  pts_time:8.291667
lavfi.scd.mafd=0.109
lavfi.scd.score=0.109
frame:200  pts:102400  pts_time:8.333333
lavfi.scd.mafd=0.264
lavfi.scd.score=0.155
frame:201  pts:102912  pts_time:8.375
lavfi.scd.mafd=0.001
lavfi.scd.score=0.001
frame:202  pts:103424  pts_time:8.416667
lavfi.scd.mafd=3.863
lavfi.scd.score=3.862
frame:203  pts:103936  pts_time:8.458333
lavfi.scd.mafd=3.541
lavfi.scd.score=0.322
frame:204  pts:104448  pts_time:8.5
lavfi.scd.mafd=0.000
lavfi.scd.score=0.000
frame:205  pts:104960  pts_time:8.541667
lavfi.scd.mafd=0.000
lavfi.scd.score=0.000
frame:206  pts:105472  pts_time:8.583333
lavfi.scd.mafd=3.874
lavfi.scd.score=3.874
frame:207  pts:105984  pts_time:8.625
lavfi.scd.mafd=0.000
lavfi.scd.score=0.000
frame:208  pts:106496  pts_time:8.666667
lavfi.scd.mafd=0.000
lavfi.scd.score=0.000
frame:209  pts:107008  pts_time:8.708333
lavfi.scd.mafd=0.000
lavfi.scd.score=0.000
frame:210  pts:107520  pts_time:8.75
lavfi.scd.mafd=3.876
lavfi.scd.score=3.876
frame:211  pts:108032  pts_time:8.791667
lavfi.scd.mafd=0.012
lavfi.scd.score=0.012
frame:212  pts:108544  pts_time:8.833333
lavfi.scd.mafd=0.026
lavfi.scd.score=0.014
frame:213  pts:109056  pts_time:8.875
lavfi.scd.mafd=3.547
lavfi.scd.score=3.521
frame:214  pts:109568  pts_time:8.916667
lavfi.scd.mafd=3.890
lavfi.scd.score=0.343
frame:215  pts:110080  pts_time:8.958333
lavfi.scd.mafd=0.000
lavfi.scd.score=0.000
frame:216  pts:110592  pts_time:9
lavfi.scd.mafd=0.001
lavfi.scd.score=0.001
frame:217  pts:111104  pts_time:9.041667
lavfi.scd.mafd=3.896
lavfi.scd.score=3.896
frame:218  pts:111616  pts_time:9.083333
lavfi.scd.mafd=0.038
lavfi.scd.score=0.038
frame:219  pts:112128  pts_time:9.125
lavfi.scd.mafd=3.901
lavfi.scd.score=3.863
frame:220  pts:112640  pts_time:9.166667
lavfi.scd.mafd=3.572
lavfi.scd.score=0.329
frame:221  pts:113152  pts_time:9.208333
lavfi.scd.mafd=0.000
lavfi.scd.score=0.000
frame:222  pts:113664  pts_time:9.25
lavfi.scd.mafd=3.913
lavfi.scd.score=3.913
frame:223  pts:114176  pts_time:9.291667
lavfi.scd.mafd=0.009
lavfi.scd.score=0.009
frame:224  pts:114688  pts_time:9.333333
lavfi.scd.mafd=0.018
lavfi.scd.score=0.009
frame:225  pts:115200  pts_time:9.375
lavfi.scd.mafd=3.918
lavfi.scd.score=3.900
frame:226  pts:115712  pts_time:9.416667
lavfi.scd.mafd=3.580
lavfi.scd.score=0.338
frame:227  pts:116224  pts_time:9.458333
lavfi.scd.mafd=0.007
lavfi.scd.score=0.007
frame:228  pts:116736  pts_time:9.5
lavfi.scd.mafd=3.925
lavfi.scd.score=3.918
frame:229  pts:117248  pts_time:9.541667
lavfi.scd.mafd=0.000
lavfi.scd.score=0.000
frame:230  pts:117760  pts_time:9.583333
lavfi.scd.mafd=3.937
lavfi.scd.score=3.937
frame:231  pts:118272  pts_time:9.625
lavfi.scd.mafd=0.026
lavfi.scd.score=0.026
frame:232  pts:118784  pts_time:9.666667
lavfi.scd.mafd=0.014
lavfi.scd.score=0.013
frame:233  pts:119296  pts_time:9.708333
lavfi.scd.mafd=3.941
lavfi.scd.score=3.928
frame:234  pts:119808  pts_time:9.75
lavfi.scd.mafd=3.603
lavfi.scd.score=0.339
frame:235  pts:120320  pts_time:9.791667
lavfi.scd.mafd=0.017
lavfi.scd.score=0.017
frame:236  pts:120832  pts_time:9.833333
lavfi.scd.mafd=3.948
lavfi.scd.score=3.931
frame:237  pts:121344  pts_time:9.875
lavfi.scd.mafd=0.009
lavfi.scd.score=0.009
frame:238  pts:121856  pts_time:9.916667
lavfi.scd.mafd=3.958
lavfi.scd.score=3.949
frame:239  pts:122368  pts_time:9.958333
lavfi.scd.mafd=0.012
lavfi.scd.score=0.012
frame:240  pts:122880  pts_time:10
lavfi.scd.mafd=0.007
lavfi.scd.score=0.004
frame:241  pts:123392  pts_time:10.041667
lavfi.scd.mafd=3.610
lavfi.scd.score=3.603
frame:242  pts:123904  pts_time:10.083333
lavfi.scd.mafd=3.965
lavfi.scd.score=0.355
frame:243  pts:124416  pts_time:10.125
lavfi.scd.mafd=0.006
lavfi.scd.score=0.006
frame:244  pts:124928  pts_time:10.166667
lavfi.scd.mafd=0.005
lavfi.scd.score=0.001
frame:245  pts:125440  pts_time:10.208333
lavfi.scd.mafd=3.976
lavfi.scd.score=3.971
frame:246  pts:125952  pts_time:10.25
lavfi.scd.mafd=0.000
lavfi.scd.score=0.000
frame:247  pts:126464  pts_time:10.291667
lavfi.scd.mafd=0.001
lavfi.scd.score=0.001
frame:248  pts:126976  pts_time:10.333333
lavfi.scd.mafd=3.983
lavfi.scd.score=3.982
frame:249  pts:127488  pts_time:10.375
lavfi.scd.mafd=3.628
lavfi.scd.score=0.355
frame:250  pts:128000  pts_time:10.416667
lavfi.scd.mafd=0.452
lavfi.scd.score=0.452
frame:251  pts:128512  pts_time:10.458333
lavfi.scd.mafd=0.000
lavfi.scd.score=0.000
frame:252  pts:129024  pts_time:10.5
lavfi.scd.mafd=4.002
lavfi.scd.score=4.002
frame:253  pts:129536  pts_time:10.541667
lavfi.scd.mafd=0.000
lavfi.scd.score=0.000
frame:254  pts:130048  pts_time:10.583333
lavfi.scd.mafd=0.000
lavfi.scd.score=0.000
frame:255  pts:130560  pts_time:10.625
lavfi.scd.mafd=0.001
lavfi.scd.score=0.001
frame:256  pts:131072  pts_time:10.666667
lavfi.scd.mafd=0.001
lavfi.scd.score=0.000
frame:257  pts:131584  pts_time:10.708333
lavfi.scd.mafd=4.010
lavfi.scd.score=4.009
frame:258  pts:132096  pts_time:10.75
lavfi.scd.mafd=0.000
lavfi.scd.score=0.000
frame:259  pts:132608  pts_time:10.791667
lavfi.scd.mafd=0.005
lavfi.scd.score=0.005
frame:260  pts:133120  pts_time:10.833333
lavfi.scd.mafd=0.006
lavfi.scd.score=0.001
frame:261  pts:133632  pts_time:10.875
lavfi.scd.mafd=3.649
lavfi.scd.score=3.643
frame:262  pts:134144  pts_time:10.916667
lavfi.scd.mafd=0.000
lavfi.scd.score=0.000
frame:263  pts:134656  pts_time:10.958333
lavfi.scd.mafd=0.002
lavfi.scd.score=0.002
frame:264  pts:135168  pts_time:11
lavfi.scd.mafd=0.002
lavfi.scd.score=0.001
frame:265  pts:135680  pts_time:11.041667
lavfi.scd.mafd=4.016
lavfi.scd.score=4.014
frame:266  pts:136192  pts_time:11.083333
lavfi.scd.mafd=0.000
lavfi.scd.score=0.000
frame:267  pts:136704  pts_time:11.125
lavfi.scd.mafd=0.001
lavfi.scd.score=0.001
frame:268  pts:137216  pts_time:11.166667
lavfi.scd.mafd=0.001
lavfi.scd.score=0.000
frame:269  pts:137728  pts_time:11.208333
lavfi.scd.mafd=0.001
lavfi.scd.score=0.000
frame:270  pts:138240  pts_time:11.25
lavfi.scd.mafd=0.001
lavfi.scd.score=0.000
frame:271  pts:138752  pts_time:11.291667
lavfi.scd.mafd=0.001
lavfi.scd.score=0.001
frame:272  pts:139264  pts_time:11.333333
lavfi.scd.mafd=0.001
lavfi.scd.score=0.000
frame:273  pts:139776  pts_time:11.375
lavfi.scd.mafd=0.001
lavfi.scd.score=0.000
frame:274  pts:140288  pts_time:11.416667
lavfi.scd.mafd=0.001
lavfi.scd.score=0.000
frame:275  pts:140800  pts_time:11.458333
lavfi.scd.mafd=0.000
lavfi.scd.score=0.000
frame:276  pts:141312  pts_time:11.5
lavfi.scd.mafd=4.016
lavfi.scd.score=4.016
frame:277  pts:141824  pts_time:11.541667
lavfi.scd.mafd=0.000
lavfi.scd.score=0.000
frame:278  pts:142336  pts_time:11.583333
lavfi.scd.mafd=0.000
lavfi.scd.score=0.000
frame:279  pts:142848  pts_time:11.625
lavfi.scd.mafd=0.000
lavfi.scd.score=0.000
frame:280  pts:143360  pts_time:11.666667
lavfi.scd.mafd=3.650
lavfi.scd.score=3.650
frame:281  pts:143872  pts_time:11.708333
lavfi.scd.mafd=0.000
lavfi.scd.score=0.000
frame:282  pts:144384  pts_time:11.75
lavfi.scd.mafd=0.000
lavfi.scd.score=0.000
frame:283  pts:144896  pts_time:11.791667
lavfi.scd.mafd=0.003
lavfi.scd.score=0.003
frame:284  pts:145408  pts_time:11.833333
lavfi.scd.mafd=4.010
lavfi.scd.score=4.006
frame:285  pts:145920  pts_time:11.875
lavfi.scd.mafd=0.000
lavfi.scd.score=0.000
frame:286  pts:146432  pts_time:11.916667
lavfi.scd.mafd=0.000
lavfi.scd.score=0.000
frame:287  pts:146944  pts_time:11.958333
lavfi.scd.mafd=0.000
lavfi.scd.score=0.000
frame:288  pts:147456  pts_time:12
lavfi.scd.mafd=0.000
lavfi.scd.score=0.000
frame:289  pts:147968  pts_time:12.041667
lavfi.scd.mafd=3.965
lavfi.scd.score=3.965
frame:290  pts:148480  pts_time:12.083333
lavfi.scd.mafd=0.656
lavfi.scd.score=0.656
frame:291  pts:148992  pts_time:12.125
lavfi.scd.mafd=0.196
lavfi.scd.score=0.196
frame:292  pts:149504  pts_time:12.166667
lavfi.scd.mafd=3.349
lavfi.scd.score=3.154
frame:293  pts:150016  pts_time:12.208333
lavfi.scd.mafd=3.565
lavfi.scd.score=0.216
frame:294  pts:150528  pts_time:12.25
lavfi.scd.mafd=0.759
lavfi.scd.score=0.759
frame:295  pts:151040  pts_time:12.291667
lavfi.scd.mafd=0.632
lavfi.scd.score=0.127
frame:296  pts:151552  pts_time:12.333333
lavfi.scd.mafd=3.122
lavfi.scd.score=2.490
frame:297  pts:152064  pts_time:12.375
lavfi.scd.mafd=0.309
lavfi.scd.score=0.309
frame:298  pts:152576  pts_time:12.416667
lavfi.scd.mafd=0.702
lavfi.scd.score=0.392
frame:299  pts:153088  pts_time:12.458333
lavfi.scd.mafd=2.723
lavfi.scd.score=2.022
frame:300  pts:153600  pts_time:12.5
lavfi.scd.mafd=2.166
lavfi.scd.score=0.557
frame:301  pts:154112  pts_time:12.541667
lavfi.scd.mafd=1.260
lavfi.scd.score=0.906
frame:302  pts:154624  pts_time:12.583333
lavfi.scd.mafd=2.134
lavfi.scd.score=0.874
frame:303  pts:155136  pts_time:12.625
lavfi.scd.mafd=1.493
lavfi.scd.score=0.641
frame:304  pts:155648  pts_time:12.666667
lavfi.scd.mafd=0.479
lavfi.scd.score=0.479
frame:305  pts:156160  pts_time:12.708333
lavfi.scd.mafd=1.719
lavfi.scd.score=1.240
frame:306  pts:156672  pts_time:12.75
lavfi.scd.mafd=0.693
lavfi.scd.score=0.693
frame:307  pts:157184  pts_time:12.791667
lavfi.scd.mafd=1.091
lavfi.scd.score=0.398
frame:308  pts:157696  pts_time:12.833333
lavfi.scd.mafd=0.745
lavfi.scd.score=0.346
frame:309  pts:158208  pts_time:12.875
lavfi.scd.mafd=2.620
lavfi.scd.score=1.875
frame:310  pts:158720  pts_time:12.916667
lavfi.scd.mafd=0.825
lavfi.scd.score=0.825
frame:311  pts:159232  pts_time:12.958333
lavfi.scd.mafd=0.219
lavfi.scd.score=0.219
frame:312  pts:159744  pts_time:13
lavfi.scd.mafd=0.433
lavfi.scd.score=0.214
frame:313  pts:160256  pts_time:13.041667
lavfi.scd.mafd=0.002
lavfi.scd.score=0.002
frame:314  pts:160768  pts_time:13.083333
lavfi.scd.mafd=2.490
lavfi.scd.score=2.488
frame:315  pts:161280  pts_time:13.125
lavfi.scd.mafd=0.001
lavfi.scd.score=0.001
frame:316  pts:161792  pts_time:13.166667
lavfi.scd.mafd=0.001
lavfi.scd.score=0.000
frame:317  pts:162304  pts_time:13.208333
lavfi.scd.mafd=0.051
lavfi.scd.score=0.051
frame:318  pts:162816  pts_time:13.25
lavfi.scd.mafd=2.490
lavfi.scd.score=2.439
frame:319  pts:163328  pts_time:13.291667
lavfi.scd.mafd=0.003
lavfi.scd.score=0.003
frame:320  pts:163840  pts_time:13.333333
lavfi.scd.mafd=0.051
lavfi.scd.score=0.047
frame:321  pts:164352  pts_time:13.375
lavfi.scd.mafd=2.963
lavfi.scd.score=2.912
frame:322  pts:164864  pts_time:13.416667
lavfi.scd.mafd=0.000
lavfi.scd.score=0.000
frame:323  pts:165376  pts_time:13.458333
lavfi.scd.mafd=0.039
lavfi.scd.score=0.038
frame:324  pts:165888  pts_time:13.5
lavfi.scd.mafd=0.008
lavfi.scd.score=0.008
frame:325  pts:166400  pts_time:13.541667
lavfi.scd.mafd=2.490
lavfi.scd.score=2.482
frame:326  pts:166912  pts_time:13.583333
lavfi.scd.mafd=0.030
lavfi.scd.score=0.030
frame:327  pts:167424  pts_time:13.625
lavfi.scd.mafd=0.006
lavfi.scd.score=0.006
frame:328  pts:167936  pts_time:13.666667
lavfi.scd.mafd=2.488
lavfi.scd.score=2.482
frame:329  pts:168448  pts_time:13.708333
lavfi.scd.mafd=0.002
lavfi.scd.score=0.002
frame:330  pts:168960  pts_time:13.75
lavfi.scd.mafd=0.019
lavfi.scd.score=0.017
frame:331  pts:169472  pts_time:13.791667
lavfi.scd.mafd=2.488
lavfi.scd.score=2.469
frame:332  pts:169984  pts_time:13.833333
lavfi.scd.mafd=0.001
lavfi.scd.score=0.001
frame:333  pts:170496  pts_time:13.875
lavfi.scd.mafd=0.017
lavfi.scd.score=0.016
frame:334  pts:171008  pts_time:13.916667
lavfi.scd.mafd=2.487
lavfi.scd.score=2.470
frame:335  pts:171520  pts_time:13.958333
lavfi.scd.mafd=0.000
lavfi.scd.score=0.000
frame:336  pts:172032  pts_time:14
lavfi.scd.mafd=0.010
lavfi.scd.score=0.010
frame:337  pts:172544  pts_time:14.041667
lavfi.scd.mafd=0.005
lavfi.scd.score=0.005
frame:338  pts:173056  pts_time:14.083333
lavfi.scd.mafd=2.485
lavfi.scd.score=2.480
frame:339  pts:173568  pts_time:14.125
lavfi.scd.mafd=0.000
lavfi.scd.score=0.000
frame:340  pts:174080  pts_time:14.166667
lavfi.scd.mafd=2.466
lavfi.scd.score=2.466
frame:341  pts:174592  pts_time:14.208333
lavfi.scd.mafd=0.000
lavfi.scd.score=0.000
frame:342  pts:175104  pts_time:14.25
lavfi.scd.mafd=2.483
lavfi.scd.score=2.483
frame:343  pts:175616  pts_time:14.291667
lavfi.scd.mafd=0.000
lavfi.scd.score=0.000
frame:344  pts:176128  pts_time:14.333333
lavfi.scd.mafd=0.002
lavfi.scd.score=0.002
frame:345  pts:176640  pts_time:14.375
lavfi.scd.mafd=0.001
lavfi.scd.score=0.001
frame:346  pts:177152  pts_time:14.416667
lavfi.scd.mafd=2.479
lavfi.scd.score=2.478
frame:347  pts:177664  pts_time:14.458333
lavfi.scd.mafd=0.000
lavfi.scd.score=0.000
frame:348  pts:178176  pts_time:14.5
lavfi.scd.mafd=0.006
lavfi.scd.score=0.006
frame:349  pts:178688  pts_time:14.541667
lavfi.scd.mafd=0.003
lavfi.scd.score=0.003
frame:350  pts:179200  pts_time:14.583333
lavfi.scd.mafd=2.476
lavfi.scd.score=2.473
frame:351  pts:179712  pts_time:14.625
lavfi.scd.mafd=0.000
lavfi.scd.score=0.000
frame:352  pts:180224  pts_time:14.666667
lavfi.scd.mafd=2.460
lavfi.scd.score=2.460
frame:353  pts:180736  pts_time:14.708333
lavfi.scd.mafd=0.006
lavfi.scd.score=0.006
frame:354  pts:181248  pts_time:14.75
lavfi.scd.mafd=2.473
lavfi.scd.score=2.467
frame:355  pts:181760  pts_time:14.791667
lavfi.scd.mafd=0.000
lavfi.scd.score=0.000
frame:356  pts:182272  pts_time:14.833333
lavfi.scd.mafd=0.005
lavfi.scd.score=0.005
frame:357  pts:182784  pts_time:14.875
lavfi.scd.mafd=0.003
lavfi.scd.score=0.002
frame:358  pts:183296  pts_time:14.916667
lavfi.scd.mafd=0.002
lavfi.scd.score=0.001
frame:359  pts:183808  pts_time:14.958333
lavfi.scd.mafd=0.002
lavfi.scd.score=0.001
frame:360  pts:184320  pts_time:15
lavfi.scd.mafd=2.458
lavfi.scd.score=2.456
frame:361  pts:184832  pts_time:15.041667
lavfi.scd.mafd=2.470
lavfi.scd.score=0.012
frame:362  pts:185344  pts_time:15.083333
lavfi.scd.mafd=0.005
lavfi.scd.score=0.005
frame:363  pts:185856  pts_time:15.125
lavfi.scd.mafd=0.003
lavfi.scd.score=0.003
frame:364  pts:186368  pts_time:15.166667
lavfi.scd.mafd=0.002
lavfi.scd.score=0.001
frame:365  pts:186880  pts_time:15.208333
lavfi.scd.mafd=0.002
lavfi.scd.score=0.001
frame:366  pts:187392  pts_time:15.25
lavfi.scd.mafd=0.011
lavfi.scd.score=0.009
frame:367  pts:187904  pts_time:15.291667
lavfi.scd.mafd=2.452
lavfi.scd.score=2.441
frame:368  pts:188416  pts_time:15.333333
lavfi.scd.mafd=0.000
lavfi.scd.score=0.000
frame:369  pts:188928  pts_time:15.375
lavfi.scd.mafd=0.000
lavfi.scd.score=0.000
frame:370  pts:189440  pts_time:15.416667
lavfi.scd.mafd=0.004
lavfi.scd.score=0.004
frame:371  pts:189952  pts_time:15.458333
lavfi.scd.mafd=0.002
lavfi.scd.score=0.002
frame:372  pts:190464  pts_time:15.5
lavfi.scd.mafd=0.001
lavfi.scd.score=0.001
frame:373  pts:190976  pts_time:15.541667
lavfi.scd.mafd=0.002
lavfi.scd.score=0.000
frame:374  pts:191488  pts_time:15.583333
lavfi.scd.mafd=2.450
lavfi.scd.score=2.449
frame:375  pts:192000  pts_time:15.625
lavfi.scd.mafd=0.000
lavfi.scd.score=0.000
frame:376  pts:192512  pts_time:15.666667
lavfi.scd.mafd=0.000
lavfi.scd.score=0.000
frame:377  pts:193024  pts_time:15.708333
lavfi.scd.mafd=0.000
lavfi.scd.score=0.000
frame:378  pts:193536  pts_time:15.75
lavfi.scd.mafd=0.006
lavfi.scd.score=0.006
frame:379  pts:194048  pts_time:15.791667
lavfi.scd.mafd=0.002
lavfi.scd.score=0.002
frame:380  pts:194560  pts_time:15.833333
lavfi.scd.mafd=0.002
lavfi.scd.score=0.000
frame:381  pts:195072  pts_time:15.875
lavfi.scd.mafd=2.448
lavfi.scd.score=2.446
frame:382  pts:195584  pts_time:15.916667
lavfi.scd.mafd=0.000
lavfi.scd.score=0.000
frame:383  pts:196096  pts_time:15.958333
lavfi.scd.mafd=0.000
lavfi.scd.score=0.000
frame:384  pts:196608  pts_time:16
lavfi.scd.mafd=2.473
lavfi.scd.score=2.473
frame:385  pts:197120  pts_time:16.041667
lavfi.scd.mafd=0.001
lavfi.scd.score=0.001
frame:386  pts:197632  pts_time:16.083333
lavfi.scd.mafd=0.001
lavfi.scd.score=0.001
frame:387  pts:198144  pts_time:16.125
lavfi.scd.mafd=0.000
lavfi.scd.score=0.000
frame:388  pts:198656  pts_time:16.166667
lavfi.scd.mafd=2.450
lavfi.scd.score=2.450
frame:389  pts:199168  pts_time:16.208333
lavfi.scd.mafd=0.004
lavfi.scd.score=0.004
frame:390  pts:199680  pts_time:16.25
lavfi.scd.mafd=2.477
lavfi.scd.score=2.473
frame:391  pts:200192  pts_time:16.291667
lavfi.scd.mafd=0.000
lavfi.scd.score=0.000
frame:392  pts:200704  pts_time:16.333333
lavfi.scd.mafd=0.000
lavfi.scd.score=0.000
frame:393  pts:201216  pts_time:16.375
lavfi.scd.mafd=0.003
lavfi.scd.score=0.003
frame:394  pts:201728  pts_time:16.416667
lavfi.scd.mafd=0.002
lavfi.scd.score=0.001
frame:395  pts:202240  pts_time:16.458333
lavfi.scd.mafd=2.481
lavfi.scd.score=2.479
frame:396  pts:202752  pts_time:16.5
lavfi.scd.mafd=0.000
lavfi.scd.score=0.000
frame:397  pts:203264  pts_time:16.541667
lavfi.scd.mafd=0.000
lavfi.scd.score=0.000
frame:398  pts:203776  pts_time:16.583333
lavfi.scd.mafd=2.452
lavfi.scd.score=2.452
frame:399  pts:204288  pts_time:16.625
lavfi.scd.mafd=2.485
lavfi.scd.score=0.033
frame:400  pts:204800  pts_time:16.666667
lavfi.scd.mafd=0.199
lavfi.scd.score=0.199
frame:401  pts:205312  pts_time:16.708333
lavfi.scd.mafd=0.000
lavfi.scd.score=0.000
frame:402  pts:205824  pts_time:16.75
lavfi.scd.mafd=0.000
lavfi.scd.score=0.000
frame:403  pts:206336  pts_time:16.791667
lavfi.scd.mafd=2.490
lavfi.scd.score=2.490
frame:404  pts:206848  pts_time:16.833333
lavfi.scd.mafd=0.002
lavfi.scd.score=0.002
frame:405  pts:207360  pts_time:16.875
lavfi.scd.mafd=0.000
lavfi.scd.score=0.000
frame:406  pts:207872  pts_time:16.916667
lavfi.scd.mafd=2.490
lavfi.scd.score=2.490
frame:407  pts:208384  pts_time:16.958333
lavfi.scd.mafd=0.027
lavfi.scd.score=0.027
frame:408  pts:208896  pts_time:17
lavfi.scd.mafd=0.009
lavfi.scd.score=0.009
frame:409  pts:209408  pts_time:17.041667
lavfi.scd.mafd=0.000
lavfi.scd.score=0.000
frame:410  pts:209920  pts_time:17.083333
lavfi.scd.mafd=2.491
lavfi.scd.score=2.490
frame:411  pts:210432  pts_time:17.125
lavfi.scd.mafd=0.017
lavfi.scd.score=0.017
frame:412  pts:210944  pts_time:17.166667
lavfi.scd.mafd=0.007
lavfi.scd.score=0.007
frame:413  pts:211456  pts_time:17.208333
lavfi.scd.mafd=0.009
lavfi.scd.score=0.001
frame:414  pts:211968  pts_time:17.25
lavfi.scd.mafd=2.491
lavfi.scd.score=2.483
frame:415  pts:212480  pts_time:17.291667
lavfi.scd.mafd=0.006
lavfi.scd.score=0.006
frame:416  pts:212992  pts_time:17.333333
lavfi.scd.mafd=0.004
lavfi.scd.score=0.002
frame:417  pts:213504  pts_time:17.375
lavfi.scd.mafd=2.493
lavfi.scd.score=2.489
frame:418  pts:214016  pts_time:17.416667
lavfi.scd.mafd=0.000
lavfi.scd.score=0.000
frame:419  pts:214528  pts_time:17.458333
lavfi.scd.mafd=0.005
lavfi.scd.score=0.004
frame:420  pts:215040  pts_time:17.5
lavfi.scd.mafd=2.495
lavfi.scd.score=2.490
frame:421  pts:215552  pts_time:17.541667
lavfi.scd.mafd=0.000
lavfi.scd.score=0.000
frame:422  pts:216064  pts_time:17.583333
lavfi.scd.mafd=0.000
lavfi.scd.score=0.000
frame:423  pts:216576  pts_time:17.625
lavfi.scd.mafd=0.002
lavfi.scd.score=0.002
frame:424  pts:217088  pts_time:17.666667
lavfi.scd.mafd=2.495
lavfi.scd.score=2.493
frame:425  pts:217600  pts_time:17.708333
lavfi.scd.mafd=0.000
lavfi.scd.score=0.000
frame:426  pts:218112  pts_time:17.75
lavfi.scd.mafd=0.000
lavfi.scd.score=0.000
frame:427  pts:218624  pts_time:17.791667
lavfi.scd.mafd=2.496
lavfi.scd.score=2.496
frame:428  pts:219136  pts_time:17.833333
lavfi.scd.mafd=0.000
lavfi.scd.score=0.000
frame:429  pts:219648  pts_time:17.875
lavfi.scd.mafd=0.000
lavfi.scd.score=0.000
frame:430  pts:220160  pts_time:17.916667
lavfi.scd.mafd=0.000
lavfi.scd.score=0.000
frame:431  pts:220672  pts_time:17.958333
lavfi.scd.mafd=2.907
lavfi.scd.score=2.907
frame:432  pts:221184  pts_time:18
lavfi.scd.mafd=0.000
lavfi.scd.score=0.000
frame:433  pts:221696  pts_time:18.041667
lavfi.scd.mafd=0.000
lavfi.scd.score=0.000
frame:434  pts:222208  pts_time:18.083333
lavfi.scd.mafd=0.000
lavfi.scd.score=0.000
frame:435  pts:222720  pts_time:18.125
lavfi.scd.mafd=0.000
lavfi.scd.score=0.000
frame:436  pts:223232  pts_time:18.166667
lavfi.scd.mafd=2.496
lavfi.scd.score=2.496
frame:437  pts:223744  pts_time:18.208333
lavfi.scd.mafd=0.000
lavfi.scd.score=0.000
frame:438  pts:224256  pts_time:18.25
lavfi.scd.mafd=0.000
lavfi.scd.score=0.000
frame:439  pts:224768  pts_time:18.291667
lavfi.scd.mafd=0.001
lavfi.scd.score=0.001
frame:440  pts:225280  pts_time:18.333333
lavfi.scd.mafd=0.000
lavfi.scd.score=0.000
frame:441  pts:225792  pts_time:18.375
lavfi.scd.mafd=2.463
lavfi.scd.score=2.462
frame:442  pts:226304  pts_time:18.416667
lavfi.scd.mafd=2.498
lavfi.scd.score=0.035
frame:443  pts:226816  pts_time:18.458333
lavfi.scd.mafd=0.000
lavfi.scd.score=0.000
frame:444  pts:227328  pts_time:18.5
lavfi.scd.mafd=0.000
lavfi.scd.score=0.000
frame:445  pts:227840  pts_time:18.541667
lavfi.scd.mafd=0.000
lavfi.scd.score=0.000
frame:446  pts:228352  pts_time:18.583333
lavfi.scd.mafd=0.000
lavfi.scd.score=0.000
frame:447  pts:228864  pts_time:18.625
lavfi.scd.mafd=0.002
lavfi.scd.score=0.002
frame:448  pts:229376  pts_time:18.666667
lavfi.scd.mafd=2.467
lavfi.scd.score=2.465
frame:449  pts:229888  pts_time:18.708333
lavfi.scd.mafd=0.000
lavfi.scd.score=0.000
frame:450  pts:230400  pts_time:18.75
lavfi.scd.mafd=2.498
lavfi.scd.score=2.498
frame:451  pts:230912  pts_time:18.791667
lavfi.scd.mafd=0.002
lavfi.scd.score=0.002
frame:452  pts:231424  pts_time:18.833333
lavfi.scd.mafd=0.001
lavfi.scd.score=0.001
frame:453  pts:231936  pts_time:18.875
lavfi.scd.mafd=0.002
lavfi.scd.score=0.001
frame:454  pts:232448  pts_time:18.916667
lavfi.scd.mafd=2.468
lavfi.scd.score=2.466
frame:455  pts:232960  pts_time:18.958333
lavfi.scd.mafd=0.000
lavfi.scd.score=0.000
